# xmcd CD database file
#
# Track frame offsets:
#	150
#	13129
#	29135
#	47659
#	65605
#	78086
#	98482
#	111684
#	131008
#	148710
#	157337
#	169217
#	181676
#
# Disc length: 2703 seconds
#
# Revision: 0
# Processed by: cddbd v1.5PL3 Copyright (c) Steve Scherf et al.
# Submitted via: CDex 1.50beta10
#
DISCID=b80a8d0d
DTITLE=Honeyboy Hickling - Straight From The Harp
DYEAR=2000
DGENRE=Blues
TTITLE0=Come On Over Here
TTITLE1=Sleeping On The Ground
TTITLE2=Sing Baby Sing
TTITLE3=Big Train
TTITLE4=Love The Life I'm Living
TTITLE5=Easy
TTITLE6=Hey Mattie
TTITLE7=Don't Believe In Nothing
TTITLE8=Can't Hold Out Much Longer
TTITLE9=La Cucaracha
TTITLE10=Must Have Been Dreaming
TTITLE11=Goin Up The Country
TTITLE12=Miss You
EXTD=YEAR: 2000
EXTT0=
EXTT1=
EXTT2=
EXTT3=
EXTT4=
EXTT5=
EXTT6=
EXTT7=
EXTT8=
EXTT9=
EXTT10=
EXTT11=
EXTT12=
PLAYORDER=
